<?xml version="1.0" encoding="UTF-8" standalone="no"?>
<!DOCTYPE svg PUBLIC "-//W3C//DTD SVG 1.1//EN" "http://www.w3.org/Graphics/SVG/1.1/DTD/svg11.dtd">
<svg width="100%" height="100%" viewBox="0 0 1000 1000" version="1.1" xmlns="http://www.w3.org/2000/svg" xmlns:xlink="http://www.w3.org/1999/xlink" xml:space="preserve" xmlns:serif="http://www.serif.com/" style="fill-rule:evenodd;clip-rule:evenodd;stroke-linejoin:round;stroke-miterlimit:2;">
    <g transform="matrix(1,0,0,1,-3831,0)">
        <g id="アートボード4" transform="matrix(1,0,0,1,-0.777778,0)">
            <rect x="3831.78" y="0" width="1000" height="1000" style="fill:none;"/>
            <g transform="matrix(1.12179,0,0,1.07903,-370.724,44.5235)">
                <path d="M4407.51,76.492C4407.51,66.688 4403.69,57.812 4397.51,51.386C4391.33,44.959 4382.79,40.985 4373.36,40.983C4373.36,40.983 4010.56,40.928 4010.56,40.928C4001.11,40.927 3992.56,44.907 3986.37,51.342C3980.18,57.778 3976.35,66.67 3976.35,76.492C3976.35,76.492 3976.33,767.742 3976.33,767.742C3976.33,777.568 3980.16,786.463 3986.36,792.9C3992.56,799.335 4001.11,803.316 4010.56,803.312C4053.83,803.281 4145.07,803.437 4228.24,803.155C4287.45,802.954 4342.56,802.462 4373.36,802.275C4382.52,802.217 4390.8,798.347 4396.76,792.072C4402.7,785.819 4406.39,777.226 4406.34,767.742C4406.32,753.868 4406.22,735.038 4406.27,712.442C4406.4,656.019 4407.27,576.12 4407.51,491.241C4407.97,326.769 4407.51,143.621 4407.51,76.492L4407.51,76.492ZM4390.18,76.492C4390.18,71.665 4388.29,67.296 4385.25,64.133C4382.21,60.971 4378,59.016 4373.36,59.017C4373.36,59.017 4010.56,59.072 4010.56,59.072C4005.93,59.072 4001.74,61.023 3998.71,64.176C3995.68,67.328 3993.81,71.683 3993.81,76.492C3993.81,76.492 3993.83,767.742 3993.83,767.742C3993.82,772.547 3995.69,776.899 3998.72,780.049C4001.75,783.201 4005.93,785.154 4010.56,785.156C4053.83,785.187 4145.07,785.03 4228.24,785.312C4287.45,785.513 4342.56,786.006 4373.36,786.193C4378.28,786.223 4382.75,784.207 4385.99,780.877C4389.26,777.524 4391.32,772.889 4391.35,767.742C4391.36,753.868 4391.46,735.038 4391.41,712.441C4391.28,656.019 4390.41,576.12 4390.17,491.241C4389.71,326.769 4390.18,143.621 4390.18,76.492Z" style="fill:rgb(71,71,71);"/>
            </g>
            <g transform="matrix(0.86556,0,0,0.814676,703.385,119.487)">
                <path d="M4408.47,50C4408.47,44.351 4404.16,39.771 4398.84,39.771L3985.08,39.7C3979.72,39.7 3975.38,44.311 3975.38,50L3975.36,794.234C3975.36,799.936 3979.71,804.559 3985.08,804.559C3985.08,804.559 4118.13,804.84 4233.34,804.419C4321.29,804.097 4398.84,803.302 4398.84,803.302C4403.56,803.302 4407.38,799.242 4407.38,794.234C4407.38,794.234 4406.98,765.703 4407,719.81C4407.03,661.058 4408.14,573.865 4408.46,481.655C4408.53,461.962 4408.5,442.039 4408.51,422.117C4408.57,236.058 4408.47,50 4408.47,50ZM4389.21,60.231L3994.77,60.299L3994.79,783.893C4027.46,783.836 4136.68,783.695 4233.34,784.048C4304.05,784.307 4368.04,784.872 4390.41,785.085C4390.53,773.218 4390.7,750.361 4390.68,719.81C4390.65,661.058 4389.55,573.865 4389.23,481.655C4389.16,461.962 4389.19,442.039 4389.18,422.117C4389.12,261.846 4389.19,101.575 4389.21,60.231Z" style="fill:rgb(71,71,71);"/>
            </g>
            <g transform="matrix(1.43817,0,0,1.43817,-87.936,-466.975)">
                <path d="M3073.16,876.453C3065.46,876.438 3058.47,879.544 3053.42,884.601C3051.36,886.662 3049.56,889.015 3048.31,891.673C3046.5,895.503 3045.61,899.827 3045.87,904.343C3046,906.526 3046.43,908.603 3046.91,910.642C3048.09,915.656 3050.13,920.327 3053.52,923.98C3058.38,929.207 3065.47,932.212 3073.16,932.287C3080.88,932.293 3087.87,929.168 3092.93,924.109C3097.99,919.049 3101.11,912.056 3101.11,904.343C3101.09,896.635 3097.96,889.653 3092.9,884.605C3087.84,879.562 3080.86,876.441 3073.16,876.453ZM3073.16,888.042C3077.66,888.049 3081.72,889.886 3084.67,892.839C3087.6,895.786 3089.41,899.856 3089.41,904.343C3089.41,908.824 3087.58,912.879 3084.64,915.819C3081.7,918.758 3077.64,920.586 3073.16,920.59C3068.66,920.633 3064.62,918.792 3061.56,915.947C3059.31,913.862 3057.18,911.438 3056.43,908.361C3056.12,907.078 3056.18,905.718 3056.26,904.343C3056.4,902.083 3057.16,900.027 3058.05,898.088C3058.95,896.125 3060.15,894.341 3061.66,892.843C3064.62,889.907 3068.67,888.05 3073.16,888.042Z" style="fill:rgb(71,71,71);"/>
            </g>
        </g>
    </g>
</svg>
