<?xml version="1.0" encoding="UTF-8" standalone="no"?>
<!DOCTYPE svg PUBLIC "-//W3C//DTD SVG 1.1//EN" "http://www.w3.org/Graphics/SVG/1.1/DTD/svg11.dtd">
<svg width="100%" height="100%" viewBox="0 0 1000 1000" version="1.1" xmlns="http://www.w3.org/2000/svg" xmlns:xlink="http://www.w3.org/1999/xlink" xml:space="preserve" xmlns:serif="http://www.serif.com/" style="fill-rule:evenodd;clip-rule:evenodd;stroke-linejoin:round;stroke-miterlimit:2;">
    <g transform="matrix(1,0,0,1,-2554,0)">
        <g id="アートボード3" transform="matrix(1,0,0,1,-0.777778,0)">
            <rect x="2554.78" y="0" width="1000" height="1000" style="fill:none;"/>
            <g transform="matrix(1,0,0,1,0.777778,0)">
                <path d="M2698.8,189.199L3436.38,191.653C3436.85,191.654 3437.32,191.69 3437.79,191.76C3446.97,193.135 3453.3,196.449 3457.9,200.691C3463.41,205.775 3466.52,212.384 3468.46,219.705C3468.67,220.503 3468.78,221.326 3468.78,222.152C3468.78,222.152 3470.14,475.824 3470.55,621.505C3470.72,680.186 3470.67,721.345 3470.67,721.314C3470.69,729.189 3469.88,735.655 3468.28,739.469C3466.53,743.629 3463.83,746.068 3460.9,747.259C3459.77,747.724 3458.57,747.964 3457.35,747.966C3457.35,747.966 3376.92,747.224 3267.33,747.191C3252.01,747.187 3236.13,747.271 3219.82,747.357C3150.13,747.722 3072.6,748.57 2998.13,748.908C2823.42,749.701 2665.6,749.6 2665.6,749.6C2661.49,749.606 2657.81,747.055 2656.38,743.206C2655.26,740.195 2654.43,737.111 2653.82,733.974C2653.25,731.036 2652.88,728.051 2652.63,725.035C2652.61,724.749 2652.6,724.462 2652.6,724.175L2655.1,222.182C2655.1,221.378 2655.2,220.577 2655.4,219.798C2658.45,207.874 2663.95,200.073 2670.83,195.228C2678.34,189.947 2687.79,188.018 2698.8,189.199ZM3435.56,211.095L2698.23,208.845C2697.86,208.844 2697.49,208.822 2697.12,208.779C2691.26,208.097 2686.12,208.501 2682.14,211.3C2678.7,213.722 2676.36,217.801 2674.75,223.547L2672.25,723.799C2672.43,725.867 2672.68,727.916 2673.06,729.936C2706.31,729.83 2845.79,729.44 2998.11,729.693C3072.57,729.816 3150.1,730.441 3219.8,730.605C3236.11,730.644 3251.99,730.683 3267.3,730.634C3359.35,730.342 3430.82,729.608 3451.35,729.378C3451.59,727.164 3451.85,724.078 3451.81,721.458C3451.81,721.448 3451.81,721.438 3451.81,721.428C3451.81,721.428 3451.41,680.271 3451.06,621.591C3450.22,481.972 3449.39,243.156 3449.33,223.529C3448.4,220.294 3447.17,217.265 3444.71,214.99C3442.61,213.049 3439.64,211.784 3435.56,211.095Z" style="fill:rgb(71,71,71);"/>
            </g>
            <g transform="matrix(1,0,0,1,-37.1487,335.272)">
                <path d="M2642.43,468.772C2638.94,468.859 2635.28,468.569 2631.62,467.99C2628.12,467.434 2624.62,466.614 2621.31,465.631C2617.81,464.59 2615.18,461.692 2614.47,458.108L2613.23,451.798C2612.43,447.753 2614.25,443.641 2617.77,441.501L2692.23,396.263C2693.77,395.331 2695.53,394.837 2697.32,394.835L3497.13,393.833C3497.23,393.833 3497.33,393.835 3497.44,393.838C3499.38,393.896 3501.89,394.012 3503.92,394.538C3505.74,395.011 3507.34,395.777 3508.65,396.738L3582.01,441.814C3585.05,443.683 3586.83,447.064 3586.64,450.628L3586.38,455.757C3586.18,459.471 3583.9,462.751 3580.48,464.216C3578.31,465.147 3576.1,465.843 3573.85,466.387C3570.97,467.084 3568.04,467.518 3565.11,467.957C3564.63,468.029 3564.15,468.065 3563.67,468.065C3563.67,468.065 3465.55,468.519 3333.36,468.196C3263.02,468.025 3183.03,466.834 3103.04,466.941C3040.05,467.025 2977.07,468.165 2918.79,468.437C2764.8,469.155 2643.71,468.776 2642.43,468.772ZM3496.95,413.278L2700.1,414.495L2643.1,449.114C2653.17,449.07 2770.78,448.584 2918.78,449.069C2977.06,449.26 3040.04,450.312 3103.03,450.309C3183.02,450.305 3263,449.004 3333.34,448.735C3443.39,448.314 3529.83,448.463 3555.7,448.528L3498.55,413.354L3498.25,413.338L3496.95,413.278Z" style="fill:rgb(71,71,71);"/>
            </g>
            <g transform="matrix(1,0,0,0.869428,16.3141,20.6389)">
                <path d="M3407.76,256.731C3407.76,251.437 3404.03,247.146 3399.42,247.146L2693.43,247.033C2688.77,247.033 2684.99,251.375 2684.99,256.731L2685.01,730.837C2685.01,736.181 2688.78,740.512 2693.43,740.512C2693.43,740.512 2805.6,740.8 2940.53,740.391C3021.13,740.147 3109.85,738.981 3187.62,739.015C3306.27,739.067 3399.42,740.381 3399.42,740.381C3404.01,740.381 3407.72,736.108 3407.72,730.837L3407.76,256.731ZM3391.12,721.397L3391.09,266.317L2701.86,266.428L2701.84,721.146C2730.28,721.088 2827.41,720.941 2940.53,721.283C3021.13,721.528 3109.85,722.694 3187.62,722.66C3285.37,722.616 3365.82,721.717 3391.12,721.397Z" style="fill:rgb(71,71,71);"/>
            </g>
            <g transform="matrix(0.775546,0,0,0.775546,671.399,-1.36133)">
                <path d="M3073.16,875.084C3065.08,875.064 3057.74,878.32 3052.45,883.627C3050.29,885.79 3048.38,888.251 3047.09,891.049C3045.22,895.079 3044.3,899.612 3044.64,904.343C3044.8,906.623 3045.28,908.78 3045.78,910.912C3047.02,916.163 3049.06,921.072 3052.58,924.929C3057.62,930.456 3065.1,933.572 3073.16,933.669C3081.26,933.676 3088.6,930.398 3093.91,925.088C3099.22,919.778 3102.49,912.438 3102.49,904.343C3102.47,896.255 3099.19,888.928 3093.87,883.633C3088.56,878.344 3081.24,875.068 3073.16,875.084ZM3073.16,889.411C3077.28,889.419 3081,891.106 3083.69,893.811C3086.38,896.51 3088.03,900.236 3088.03,904.343C3088.02,908.443 3086.35,912.151 3083.66,914.84C3080.97,917.529 3077.26,919.204 3073.16,919.208C3069.72,919.226 3066.6,918.022 3064.01,916.151C3062.84,915.306 3061.68,914.455 3060.75,913.353C3059.48,911.852 3058.17,910.281 3057.65,908.328C3057.31,907.064 3057.4,905.709 3057.49,904.343C3057.65,902.254 3058.46,900.395 3059.3,898.608C3060.14,896.816 3061.25,895.188 3062.64,893.817C3065.35,891.131 3069.05,889.421 3073.16,889.411Z" style="fill:rgb(71,71,71);"/>
            </g>
        </g>
    </g>
</svg>
